<svg width="83" height="80" viewBox="0 0 83 80" fill="none" xmlns="http://www.w3.org/2000/svg">
<circle cx="42.5" cy="40.5" r="31.5" fill="url(#paint0_linear_731_33472)"/>
<circle cx="79.5" cy="12.5" r="3.5" fill="#76D39D"/>
<circle cx="8.5" cy="4.5" r="4.5" fill="#76D39D"/>
<circle cx="4" cy="59" r="2" fill="#76D39D"/>
<circle cx="73" cy="71" r="1" fill="#76D39D"/>
<path fill-rule="evenodd" clip-rule="evenodd" d="M37.3092 29.1665H46.7018C50.3743 29.1665 52.8334 31.7448 52.8334 35.5798V44.4318C52.8334 48.2548 50.3743 50.8332 46.7018 50.8332H37.3092C33.6367 50.8332 31.1667 48.2548 31.1667 44.4318V35.5798C31.1667 31.7448 33.6367 29.1665 37.3092 29.1665ZM41.3825 43.2393L46.5284 38.0935C46.8967 37.7251 46.8967 37.1293 46.5284 36.7501C46.16 36.3818 45.5534 36.3818 45.185 36.7501L40.7109 41.2243L38.815 39.3285C38.4467 38.9601 37.84 38.9601 37.4717 39.3285C37.1034 39.6968 37.1034 40.2926 37.4717 40.6718L40.05 43.2393C40.2342 43.4235 40.4725 43.5101 40.7109 43.5101C40.96 43.5101 41.1984 43.4235 41.3825 43.2393Z" fill="white"/>
<circle cx="47" cy="2" r="1" fill="#76D39D"/>
<circle cx="27.5" cy="78.5" r="1.5" fill="#76D39D"/>
<circle cx="54.5" cy="76.5" r="0.5" fill="#76D39D"/>
<circle cx="76" cy="49" r="1" fill="#76D39D"/>
<circle cx="0.5" cy="33.5" r="0.5" fill="#76D39D"/>
<defs>
<linearGradient id="paint0_linear_731_33472" x1="74" y1="72" x2="-0.964344" y2="50.2648" gradientUnits="userSpaceOnUse">
<stop stop-color="#1AB65C"/>
<stop offset="1" stop-color="#39E180"/>
</linearGradient>
</defs>
</svg>
